# xmcd CD database file
#
# Track frame offsets:
#	150
#	17532
#	31127
#	46165
#	58200
#	73475
#	89340
#	105930
#	122787
#	134430
#	149295
#	168047
#	179450
#	191375
#	205457
#
# Disc length: 3036 seconds
#
# Revision: 6
# Processed by: cddbd v1.4PL0 Copyright (c) Steve Scherf et al.
# Submitted via: CDex 1.40Release
#
DISCID=d20bda0f
DTITLE=Reginaldo Rossi - Meus Momentos
DYEAR=1994
DGENRE=MPB
TTITLE0=A raposa e as uvas
TTITLE1=A volta
TTITLE2=Em plena lua de mel
TTITLE3=Mon amour meu bem ma femme
TTITLE4=Ai amor
TTITLE5=Garçon
TTITLE6=Amor, amor, amor
TTITLE7=Não consigo te esquecer
TTITLE8=Sai de mim
TTITLE9=As quatro estações
TTITLE10=Saí da tua vida
TTITLE11=Teu olhar, teu andar
TTITLE12=Meu fracasso
TTITLE13=Doce pecado
TTITLE14=Recife minha cidade
EXTD=Submited by: José Merhi\nEMAIL: jmerhi@cantv.net\nCaracas, Venezuela YEAR: 1994
EXTT0=Le nozze di Figaro\nPhilharmonia Orchestra\nConducted by sir John Pritchard
EXTT1=Le nozze di Figaro\nPhilharmonia Orchestra\nConducted by sir John Pritchard
EXTT2=Le nozze di Figaro\nPhilharmonia Orchestra\nConducted by sir John Pritchard
EXTT3=Idomeneo\nPhilharmonia Orchestra\nConducted by sir John Pritchard
EXTT4=Don Giovanni\nPhilharmonia Orchestra\nConducted by sir John Pritchard
EXTT5=Don Giovanni\nPhilharmonia Orchestra\nConducted by sir John Pritchard
EXTT6=Don Giovanni\nPhilharmonia Orchestra\nConducted by sir John Pritchard
EXTT7=Kosmic Muffin
EXTT8=¿¿ºñ¶ó ¸¶µð°£ Å×¸¶
EXTT9=Club De Las Madres Deportivas
EXTT10=Los Dirigibles
EXTT11=¼º¸ðÀÇ º¸¼®Áß °£ÁÖ°î
EXTT12=Garby-Breuss Ltd.
EXTT13=Orquesta Sinfónica R. Hamburgo.\nGuldolf Rendell
EXTT14=Orquesta Amigos de Praga\nPietro Di La Coronna
PLAYORDER=
